<svg width="23" height="26" viewBox="0 0 23 26" fill="none" xmlns="http://www.w3.org/2000/svg">
<path d="M10.1498 2.80061C10.2263 2.63493 10.3059 2.48199 10.3856 2.3418C10.2454 2.57439 10.1658 2.76237 10.1498 2.80061Z" fill="url(#paint0_linear_182:150)"/>
<path d="M8.59497 11.2249C8.57585 11.7538 8.56311 12.2923 8.56311 12.8371C8.56311 13.3597 8.57267 13.8758 8.59178 14.3856C8.61409 14.9655 8.64595 15.5358 8.69056 16.0934C8.71923 16.4662 8.75428 16.8326 8.7957 17.1895C8.85305 17.6865 8.91678 18.1676 8.99006 18.6328C9.13981 19.5727 9.32779 20.4426 9.55083 21.2232C9.6942 21.7202 9.84714 22.1727 10.0128 22.5646C10.0128 22.5646 10.0128 22.5677 10.016 22.5709C10.016 22.5741 10.0192 22.5773 10.0192 22.5805C10.0224 22.5837 10.0224 22.59 10.0256 22.5964C10.0288 22.6028 10.0319 22.6092 10.0351 22.6155C10.0383 22.6219 10.0415 22.6315 10.0447 22.6378C10.0479 22.6442 10.0511 22.6506 10.0542 22.6601C10.2167 23.0393 10.3888 23.3611 10.5608 23.6192C10.7202 23.855 10.8795 24.0334 11.0292 24.1417C11.4084 24.5241 11.8863 24.8267 12.4534 24.8267C12.6542 24.8267 12.8645 24.7662 13.0779 24.6611C12.874 24.9191 12.6605 25.1326 12.4375 25.2919C12.087 25.5436 11.7142 25.6679 11.3287 25.6679C10.9432 25.6679 10.5704 25.5404 10.2199 25.2919C9.92998 25.0848 9.65278 24.7853 9.3947 24.4062C8.93908 23.7339 8.53762 22.7908 8.1967 21.6055C7.98322 20.8599 7.80161 20.0379 7.64867 19.1553C7.56902 18.6965 7.50211 18.2218 7.44157 17.7343C7.33961 16.9123 7.26315 16.052 7.21535 15.1694C7.18349 14.6023 7.16437 14.0224 7.158 13.4361C7.15482 13.2354 7.15482 13.0347 7.15482 12.8308C7.15482 12.6077 7.15482 12.3847 7.16119 12.1617C7.17075 11.5754 7.18986 10.9955 7.22173 10.4284C7.2727 9.54581 7.34917 8.68872 7.45113 7.86987C7.51167 7.38239 7.58176 6.91083 7.66142 6.45521C7.67416 6.45839 7.68372 6.46158 7.69647 6.46158C7.68691 6.45839 7.67416 6.45202 7.66461 6.44884C7.81436 5.58857 7.99278 4.78565 8.19988 4.0592C8.54081 2.87394 8.94226 1.93083 9.39789 1.25854C9.65597 0.879387 9.93317 0.583072 10.2231 0.372784C10.5768 0.127447 10.9496 0 11.3351 0C11.7206 0 12.0934 0.127447 12.4439 0.37597C12.7338 0.583072 13.011 0.882573 13.2691 1.26173C13.7247 1.93401 14.1262 2.87712 14.4671 4.06238C14.6742 4.78883 14.8526 5.58857 15.0024 6.44246C14.9992 6.44246 14.9992 6.44246 14.996 6.44565C13.4635 1.48158 12.1284 0.936738 11.2491 1.41785C11.0515 1.46883 10.8062 1.69505 10.5672 2.0519C10.5067 2.14112 10.4461 2.2367 10.3888 2.34185V2.34503C10.2486 2.57762 10.1689 2.76879 10.153 2.80384V2.80703V2.81021C10.0479 3.03962 9.94273 3.29451 9.84395 3.56853C9.74518 3.84254 9.6496 4.13885 9.56038 4.45429C9.34054 5.21897 9.15574 6.06968 9.00918 6.9873C8.93271 7.45248 8.86898 7.9336 8.81163 8.43064C8.77021 8.78749 8.73516 9.15072 8.7033 9.52032C8.65232 10.0715 8.61727 10.6419 8.59497 11.2249Z" fill="url(#paint1_linear_182:150)"/>
<path d="M7.66781 6.45508C7.67737 6.45826 7.69012 6.46145 7.69968 6.46782C7.68693 6.46464 7.67737 6.46145 7.66463 6.46145C7.66463 6.45508 7.66463 6.45508 7.66781 6.45508Z" fill="url(#paint2_linear_182:150)"/>
<path d="M15.0089 6.48733C15.0057 6.47449 14.9992 6.45843 14.996 6.44559C14.9992 6.44559 14.9992 6.44238 15.0025 6.44238C15.0025 6.45843 15.0057 6.47449 15.0089 6.48733Z" fill="url(#paint3_linear_182:150)"/>
<path d="M15.509 12.8371C15.509 13.0411 15.509 13.245 15.5058 13.4489C15.4963 14.0351 15.4772 14.6118 15.4453 15.179C15.3975 16.0647 15.321 16.9282 15.2191 17.7502C15.1585 18.2377 15.0884 18.7125 15.012 19.1713C14.8622 20.0475 14.6806 20.8663 14.4671 21.6119C14.1262 22.7971 13.7248 23.7403 13.2691 24.4125C13.2086 24.5018 13.1449 24.5878 13.0843 24.6674C12.8709 24.7758 12.6606 24.8331 12.4598 24.8331C11.8927 24.8331 11.4148 24.5304 11.0356 24.1481C11.1439 24.2277 11.2459 24.2692 11.3383 24.2692C11.5486 24.2692 11.8322 24.0334 12.1094 23.6256C12.4758 23.0839 12.8262 22.2523 13.1194 21.2264C13.3424 20.4489 13.5304 19.5791 13.6801 18.6424C13.7534 18.1772 13.8203 17.6961 13.8745 17.199C13.9159 16.839 13.951 16.4694 13.9796 16.0966C14.0243 15.539 14.0593 14.9687 14.0784 14.3888C14.0975 13.879 14.1071 13.3597 14.1071 12.8371C14.1071 12.2923 14.0975 11.7507 14.0752 11.2217C14.0529 10.6419 14.0179 10.0683 13.9733 9.51395C13.9414 9.14117 13.9064 8.77475 13.8649 8.4179C13.8076 7.92086 13.7407 7.43974 13.6674 6.97456C13.5177 6.06013 13.3329 5.2126 13.1162 4.4511C12.8231 3.42197 12.4726 2.59356 12.1062 2.05191C11.829 1.64089 11.5486 1.4083 11.3351 1.4083C11.3064 1.4083 11.2778 1.41148 11.2491 1.42104C12.1285 0.939928 13.4635 1.48795 14.996 6.44884C14.9992 6.46158 15.0056 6.47752 15.0088 6.49026C15.0853 6.93633 15.1522 7.39514 15.2127 7.86669C15.3178 8.68873 15.3943 9.549 15.4453 10.4316C15.4772 10.9987 15.4963 11.5786 15.5058 12.1649C15.5058 12.3879 15.509 12.6109 15.509 12.8371Z" fill="url(#paint4_linear_182:150)"/>
<path d="M7.66462 6.45844C7.58496 6.91406 7.51487 7.3888 7.45433 7.8731C6.5845 7.54174 5.75609 7.27728 4.98504 7.08611C3.94634 6.82803 3.05421 6.71333 2.40104 6.76112C1.90718 6.79617 1.56308 6.92043 1.45793 7.10523C1.44519 7.13072 1.43244 7.15621 1.42607 7.18807C1.45156 6.18442 2.59221 5.29866 7.66462 6.45844Z" fill="url(#paint5_linear_182:150)"/>
<path d="M22.4804 17.2244C22.4645 17.4634 22.4135 17.6737 22.3115 17.8489C22.0279 18.3396 21.5277 18.604 21.0052 18.741C21.1294 18.6869 21.2187 18.62 21.2633 18.5403C21.3684 18.3555 21.3047 17.9955 21.0912 17.5526C20.8045 16.9631 20.2596 16.2462 19.5172 15.4784C18.9565 14.8953 18.2969 14.2995 17.5609 13.7005C17.1945 13.4042 16.809 13.1047 16.4075 12.8084C16.1144 12.5917 15.8149 12.3782 15.5058 12.1647C15.047 11.8461 14.5691 11.5339 14.0752 11.2248C13.6451 10.954 13.2022 10.6864 12.7498 10.4251C12.2782 10.1511 11.8035 9.88981 11.3351 9.64447C10.8221 9.37365 10.3092 9.11875 9.80256 8.87979C9.46801 8.72048 9.13346 8.57073 8.80528 8.42735C8.86263 7.93031 8.92954 7.44919 9.00283 6.98401C9.76432 7.30263 10.5418 7.66585 11.3319 8.06413C11.8385 8.31902 12.3515 8.59303 12.8645 8.8766C13.0588 8.98493 13.2564 9.09645 13.4507 9.20796C13.626 9.30992 13.8012 9.41188 13.9733 9.51384C14.4767 9.81334 14.9674 10.1192 15.4453 10.4315C16.1909 10.9189 16.8982 11.416 17.5609 11.9162C17.9528 12.2125 18.3288 12.512 18.6888 12.8084C19.3739 13.3787 19.992 13.9458 20.5273 14.5002C21.3843 15.386 21.9993 16.208 22.3561 16.9376C22.4007 17.0332 22.4421 17.1288 22.4804 17.2244Z" fill="url(#paint6_linear_182:150)"/>
<path d="M7.44798 17.7406C7.50851 18.2281 7.57861 18.7029 7.65508 19.1617C6.83942 19.4612 6.0588 19.7065 5.32598 19.8881C4.12797 20.1876 3.11158 20.3087 2.30229 20.2514C1.84667 20.2195 1.44839 20.1271 1.1234 19.9805C0.731501 19.8021 0.435186 19.544 0.240829 19.2095C0.0496576 18.8749 -0.0268109 18.4894 0.0146095 18.0625C0.0496576 17.7056 0.167546 17.3169 0.368276 16.9059C0.725129 16.1762 1.33688 15.3542 2.19715 14.4684C2.72287 13.9236 3.32824 13.366 4.00053 12.8084C4.01008 12.8021 4.01964 12.7925 4.02601 12.7861C4.01646 12.7957 4.01008 12.8021 4.00371 12.8116C0.463862 16.6223 0.658219 18.0561 1.51212 18.5754C1.65868 18.722 1.97411 18.8208 2.40106 18.8494C2.50939 18.8558 2.62091 18.8622 2.74198 18.859H2.74517C3.01599 18.8622 3.21991 18.8367 3.25814 18.8335H3.26133H3.26452C3.51623 18.8112 3.78705 18.773 4.07699 18.722C4.36375 18.671 4.66962 18.6041 4.98506 18.5245C5.75611 18.3333 6.58133 18.0688 7.44798 17.7406Z" fill="url(#paint7_linear_182:150)"/>
<path d="M22.7066 7.51947C22.6715 7.87633 22.5537 8.26504 22.3529 8.67606C21.9993 9.40888 21.3843 10.2277 20.5241 11.1135C19.9856 11.6679 19.3675 12.2382 18.6856 12.8054C18.3288 13.1017 17.9528 13.4012 17.5577 13.6975C16.895 14.1977 16.1877 14.6948 15.4453 15.1791C14.9705 15.4913 14.4799 15.7972 13.9765 16.0967C13.8012 16.2018 13.626 16.3038 13.4507 16.4057C13.2564 16.5204 13.0588 16.6288 12.8613 16.7403C12.3483 17.0239 11.8385 17.2979 11.3319 17.5528C10.5386 17.951 9.75795 18.3143 8.99326 18.6361C8.91998 18.1709 8.85307 17.6898 8.7989 17.1927C9.13027 17.0493 9.46482 16.8964 9.80255 16.7371C10.3092 16.4981 10.8189 16.2432 11.3351 15.9724C11.8067 15.7239 12.2782 15.4626 12.7498 15.1918C13.2022 14.9305 13.6451 14.6629 14.0784 14.3921C14.5691 14.083 15.047 13.7676 15.5058 13.4521C15.8149 13.2387 16.1144 13.0252 16.4075 12.8085C16.809 12.5122 17.1945 12.2159 17.5609 11.9164C18.2969 11.3174 18.9565 10.7216 19.5172 10.1385C19.8773 9.76573 20.1895 9.40569 20.4508 9.06796C20.4508 9.06796 20.454 9.06477 20.454 9.06159C20.4572 9.0584 20.4572 9.05521 20.4603 9.05203C20.4635 9.04884 20.4667 9.04247 20.4699 9.03928C20.4731 9.0361 20.4795 9.02972 20.4826 9.02335C20.489 9.01698 20.4922 9.01061 20.4986 9.00423C20.5018 8.99786 20.5081 8.99149 20.5113 8.98512C20.7598 8.65375 20.9542 8.34469 21.088 8.06431C21.2123 7.80942 21.2856 7.58001 21.3047 7.3984C21.4481 6.87905 21.4704 6.31191 21.1868 5.82124C21.088 5.64918 20.9319 5.49625 20.7312 5.36243C21.0562 5.40703 21.3461 5.48987 21.5946 5.60139C21.9865 5.77982 22.2828 6.0379 22.4772 6.37245C22.6715 6.70381 22.748 7.09252 22.7066 7.51947Z" fill="url(#paint8_linear_182:150)"/>
<path d="M5.1221 11.9131C5.78164 11.4129 6.48578 10.919 7.22498 10.4347C7.19312 11.0018 7.17081 11.5817 7.16444 12.168C6.85857 12.3783 6.56225 12.5917 6.27231 12.8052C5.87085 13.1015 5.48851 13.401 5.1221 13.6973C4.40202 14.2836 3.75841 14.8699 3.20402 15.4402C2.46163 16.2081 1.9168 16.9281 1.63004 17.5144C1.41338 17.9605 1.34966 18.3205 1.4548 18.5021C1.46754 18.5276 1.48666 18.5499 1.50897 18.5722C0.651882 18.0497 0.457525 16.6191 3.99737 12.8052C4.00375 12.7957 4.01331 12.7893 4.01968 12.7797C4.37334 12.493 4.74294 12.203 5.1221 11.9131Z" fill="url(#paint9_linear_182:150)"/>
<path d="M21.3079 7.39503C21.3238 7.26121 21.3079 7.14969 21.2633 7.07322C21.1581 6.88842 20.814 6.76416 20.3202 6.72911C19.667 6.68132 18.7749 6.79602 17.7362 7.0541C16.9492 7.25165 16.0985 7.52247 15.2127 7.8634C14.773 8.03226 14.3238 8.21706 13.8649 8.41461C13.5336 8.55798 13.199 8.71092 12.8613 8.87342C12.3547 9.11238 11.8449 9.37046 11.3319 9.64129C10.8827 9.88025 10.4302 10.1288 9.9778 10.39C9.50625 10.6609 9.04425 10.9412 8.595 11.2216C8.6173 10.6386 8.65235 10.0682 8.69696 9.51065C8.88813 9.39595 9.0793 9.28443 9.27366 9.17292C9.4489 9.07096 9.62414 8.97219 9.79938 8.87342C10.3092 8.58666 10.8221 8.31583 11.3287 8.05775C12.1189 7.65629 12.9027 7.29307 13.6642 6.97126C14.1135 6.78009 14.5595 6.60485 14.9929 6.44236C14.996 6.44236 14.996 6.43917 14.9992 6.43917C15.8372 6.13011 16.6401 5.87522 17.3952 5.68723C18.5932 5.38773 19.6096 5.26666 20.4189 5.32401C20.5273 5.33038 20.6324 5.34312 20.7344 5.35587C20.9351 5.48969 21.0912 5.63944 21.19 5.81468C21.4736 6.30854 21.4513 6.87568 21.3079 7.39503Z" fill="url(#paint10_linear_182:150)"/>
<path d="M22.4804 19.2412C22.2892 19.5758 21.9897 19.8339 21.5978 20.0123C21.2729 20.1588 20.8746 20.2512 20.419 20.2831C19.6097 20.3405 18.5901 20.2194 17.3953 19.9199C16.6465 19.7319 15.8436 19.4802 15.0088 19.1711C14.5723 19.0086 14.1262 18.8334 13.6738 18.6422C12.9091 18.3172 12.1221 17.954 11.3288 17.5526C10.8222 17.2945 10.3092 17.0236 9.79941 16.7369C9.62417 16.6381 9.44893 16.5393 9.27369 16.4374C9.07933 16.3259 8.88497 16.2112 8.69061 16.0965C8.64601 15.5389 8.61096 14.9686 8.59184 14.3887C9.04109 14.6722 9.50309 14.9494 9.97783 15.2235C10.4303 15.4847 10.8827 15.7364 11.332 15.9722C11.8449 16.243 12.3579 16.5011 12.8613 16.7401C13.2023 16.9026 13.5368 17.0555 13.8713 17.1989C14.3302 17.3996 14.7794 17.5844 15.2191 17.7501C16.1049 18.0878 16.9524 18.3587 17.7362 18.5562C18.2396 18.6805 18.708 18.7729 19.1286 18.827C19.1286 18.827 19.1317 18.827 19.1349 18.827C19.1381 18.827 19.1413 18.827 19.1445 18.8302C19.1477 18.8302 19.154 18.8302 19.1604 18.8334C19.1668 18.8334 19.1732 18.8366 19.1827 18.8366C19.1891 18.8366 19.1986 18.8398 19.2082 18.8398C19.2146 18.8398 19.2241 18.843 19.2337 18.843C19.6447 18.8907 20.0079 18.9067 20.3202 18.8844C20.6038 18.8653 20.8395 18.8143 21.0052 18.741C21.5277 18.604 22.028 18.3395 22.3115 17.8489C22.4103 17.6768 22.4645 17.4665 22.4804 17.2244C22.6047 17.5302 22.6811 17.8202 22.7066 18.0942C22.7481 18.5212 22.6716 18.9067 22.4804 19.2412Z" fill="url(#paint11_linear_182:150)"/>
<path d="M12.4726 13.2991C12.4344 13.3374 12.4184 13.3884 12.428 13.4393L12.6064 14.4844C12.6287 14.615 12.4917 14.7138 12.3738 14.6533L11.4339 14.1594C11.3861 14.1339 11.3319 14.1339 11.2873 14.1594L10.3474 14.6533C10.255 14.7011 10.1531 14.6501 10.1244 14.5641C10.4494 14.3888 11.0802 13.9937 11.6665 13.296C12.0616 12.8244 12.2782 12.458 12.3993 12.1776L13.1449 12.2859C13.2755 12.3051 13.3265 12.4644 13.2341 12.5568L12.4726 13.2991Z" fill="#71BA44"/>
<path d="M12.3993 12.1776C12.2782 12.4548 12.0615 12.8244 11.6665 13.2959C11.0834 13.9937 10.4493 14.3888 10.1243 14.564C10.1148 14.5385 10.1116 14.5131 10.118 14.4844L10.2964 13.4393C10.306 13.3883 10.2868 13.3342 10.2518 13.2991L9.49029 12.5567C9.39471 12.4643 9.44887 12.305 9.5795 12.2859L10.6309 12.133C10.6819 12.1266 10.7265 12.0916 10.752 12.0469L11.2204 11.0943C11.2777 10.9764 11.4466 10.9764 11.5071 11.0943L11.9755 12.0469C11.9978 12.0947 12.0424 12.1266 12.0966 12.133L12.3993 12.1776Z" fill="#1072BA"/>
<path d="M7.66782 6.45508C7.67738 6.45826 7.69013 6.46145 7.69969 6.46782C7.68694 6.46463 7.67738 6.46145 7.66464 6.46145C2.59223 5.30168 1.44839 6.18744 1.42609 7.19108C1.37192 7.38863 1.44521 7.71362 1.63319 8.09915C1.68098 8.19473 1.73515 8.29669 1.79569 8.39865V8.40183C1.92313 8.63124 2.04421 8.79373 2.07288 8.83197C2.07607 8.83515 2.07607 8.83515 2.07607 8.83834C2.07607 8.83834 2.07607 8.83834 2.07607 8.84153C2.3692 9.25573 2.74836 9.70498 3.20398 10.1765C3.75519 10.7469 4.40198 11.3331 5.12206 11.9194C5.48529 12.2157 5.87082 12.5152 6.27227 12.8115C6.55903 13.025 6.85853 13.2385 7.16122 13.4487C7.16759 14.035 7.1899 14.6117 7.21857 15.182C6.47938 14.6977 5.77842 14.2039 5.11888 13.7036C4.72698 13.4073 4.35419 13.111 3.99734 12.8147L3.99415 12.8115C3.32505 12.2539 2.71968 11.6963 2.19077 11.1515C1.33369 10.2658 0.718756 9.44372 0.361903 8.71408C0.161174 8.30306 0.0432848 7.91435 0.00823676 7.55749C-0.0268113 7.12417 0.0496572 6.73546 0.244014 6.4041C0.435185 6.06955 0.731501 5.81147 1.12659 5.63304C1.45158 5.48648 1.84985 5.39408 2.30548 5.36221C3.11477 5.30486 4.13435 5.42594 5.32916 5.72544C6.06199 5.90705 6.84897 6.15239 7.66782 6.45508Z" fill="url(#paint12_linear_182:150)"/>
<defs>
<linearGradient id="paint0_linear_182:150" x1="10.2667" y1="26.6313" x2="10.2667" y2="-0.249878" gradientUnits="userSpaceOnUse">
<stop stop-color="#074E8B"/>
<stop offset="0.4832" stop-color="#1072BA"/>
<stop offset="0.9927" stop-color="#074E8B"/>
</linearGradient>
<linearGradient id="paint1_linear_182:150" x1="11.0793" y1="26.6313" x2="11.0793" y2="-0.249828" gradientUnits="userSpaceOnUse">
<stop stop-color="#074E8B"/>
<stop offset="0.4832" stop-color="#1072BA"/>
<stop offset="0.9927" stop-color="#074E8B"/>
</linearGradient>
<linearGradient id="paint2_linear_182:150" x1="7.68222" y1="26.6309" x2="7.68222" y2="-0.249857" gradientUnits="userSpaceOnUse">
<stop stop-color="#074E8B"/>
<stop offset="0.4832" stop-color="#1072BA"/>
<stop offset="0.9927" stop-color="#074E8B"/>
</linearGradient>
<linearGradient id="paint3_linear_182:150" x1="15.0008" y1="26.7843" x2="15.0008" y2="-0.300651" gradientUnits="userSpaceOnUse">
<stop stop-color="#074E8B"/>
<stop offset="0.4832" stop-color="#1072BA"/>
<stop offset="0.9927" stop-color="#074E8B"/>
</linearGradient>
<linearGradient id="paint4_linear_182:150" x1="13.3091" y1="25.7866" x2="13.178" y2="0.61755" gradientUnits="userSpaceOnUse">
<stop offset="0.0237895" stop-color="#71BA44"/>
<stop offset="0.5352" stop-color="#A6CE39"/>
<stop offset="0.9587" stop-color="#71BA44"/>
</linearGradient>
<linearGradient id="paint5_linear_182:150" x1="1.36733" y1="6.09141" x2="11.625" y2="8.45101" gradientUnits="userSpaceOnUse">
<stop offset="0.1134" stop-color="#71BA44"/>
<stop offset="0.8434" stop-color="#A6CE39"/>
</linearGradient>
<linearGradient id="paint6_linear_182:150" x1="23.6912" y1="18.1581" x2="8.55046" y2="8.26095" gradientUnits="userSpaceOnUse">
<stop offset="0.0708096" stop-color="#71BA44"/>
<stop offset="1" stop-color="#A6CE39"/>
</linearGradient>
<linearGradient id="paint7_linear_182:150" x1="-1.25844" y1="17.8947" x2="7.98331" y2="15.4696" gradientUnits="userSpaceOnUse">
<stop offset="0.0849393" stop-color="#074E8B"/>
<stop offset="1" stop-color="#1072BA"/>
</linearGradient>
<linearGradient id="paint8_linear_182:150" x1="24.2544" y1="6.17408" x2="8.1305" y2="16.8906" gradientUnits="userSpaceOnUse">
<stop offset="0.0610106" stop-color="#074E8B"/>
<stop offset="1" stop-color="#1072BA"/>
</linearGradient>
<linearGradient id="paint9_linear_182:150" x1="0.304387" y1="18.5975" x2="7.25209" y2="10.5356" gradientUnits="userSpaceOnUse">
<stop offset="0.0681965" stop-color="#71BA44"/>
<stop offset="1" stop-color="#A6CE39"/>
</linearGradient>
<linearGradient id="paint10_linear_182:150" x1="23.3228" y1="4.97814" x2="8.31319" y2="10.6149" gradientUnits="userSpaceOnUse">
<stop offset="0.123" stop-color="#71BA44"/>
<stop offset="1" stop-color="#A6CE39"/>
</linearGradient>
<linearGradient id="paint11_linear_182:150" x1="26.2427" y1="20.6732" x2="4.31809" y2="13.4634" gradientUnits="userSpaceOnUse">
<stop offset="0.1482" stop-color="#074E8B"/>
<stop offset="0.9078" stop-color="#1072BA"/>
</linearGradient>
<linearGradient id="paint12_linear_182:150" x1="0.28704" y1="4.0243" x2="9.13552" y2="13.1022" gradientUnits="userSpaceOnUse">
<stop offset="0.0769817" stop-color="#074E8B"/>
<stop offset="1" stop-color="#1072BA"/>
</linearGradient>
</defs>
</svg>
